<?xml version="1.0" standalone="no"?>
<!DOCTYPE svg PUBLIC "-//W3C//DTD SVG 20010904//EN"
 "http://www.w3.org/TR/2001/REC-SVG-20010904/DTD/svg10.dtd">
<svg version="1.0" xmlns="http://www.w3.org/2000/svg"
 width="564.000000pt" height="564.000000pt" viewBox="0 0 564.000000 564.000000"
 preserveAspectRatio="xMidYMid meet">
<metadata>
Created by potrace 1.14, written by Peter Selinger 2001-2017
</metadata>
<g transform="translate(0.000000,564.000000) scale(0.100000,-0.100000)"
fill="#000000" stroke="none">
<path d="M2619 5615 c-2 -1 -33 -6 -69 -9 -36 -3 -80 -7 -98 -10 -18 -3 -52
-8 -75 -11 -23 -3 -53 -8 -67 -10 -14 -3 -34 -7 -45 -9 -106 -20 -310 -78
-400 -113 -22 -8 -49 -19 -60 -23 -86 -33 -145 -60 -239 -107 -108 -53 -246
-131 -256 -144 -3 -3 -16 -12 -29 -19 -14 -7 -30 -17 -35 -22 -6 -5 -43 -32
-82 -61 -107 -79 -145 -109 -181 -144 -18 -18 -33 -30 -33 -28 0 6 -176 -170
-227 -228 -348 -391 -583 -894 -672 -1437 -32 -197 -36 -625 -7 -780 2 -14 7
-47 11 -75 17 -135 80 -378 142 -545 45 -123 159 -358 223 -461 27 -44 50 -85
50 -90 0 -5 3 -9 8 -9 4 0 16 -16 26 -35 11 -19 23 -35 28 -35 4 0 8 -5 8 -11
0 -10 123 -169 185 -238 58 -66 222 -226 271 -266 27 -22 63 -52 79 -67 17
-15 33 -28 37 -28 4 0 18 -11 32 -25 14 -14 27 -25 29 -25 3 0 56 -34 118 -76
247 -164 692 -351 924 -388 21 -4 40 -8 44 -11 4 -2 25 -6 47 -9 21 -3 68 -10
104 -16 122 -19 215 -25 400 -25 283 0 428 17 689 81 197 49 528 176 616 238
17 11 30 19 30 17 0 -8 148 81 245 147 190 130 426 341 535 477 22 28 45 55
51 60 7 6 46 57 88 115 42 58 81 110 86 117 6 7 10 16 10 21 0 4 5 13 12 20
36 36 189 337 247 487 42 108 115 347 126 415 3 19 8 42 10 50 2 8 7 31 10 50
3 19 8 42 10 50 2 8 7 47 11 85 3 39 9 79 11 90 12 48 10 465 -2 565 -22 172
-25 191 -30 213 -3 12 -7 33 -9 47 -2 14 -9 43 -14 65 -6 22 -13 51 -16 65
-12 67 -73 254 -125 385 -14 34 -139 287 -168 340 -37 66 -125 199 -135 203
-4 2 -8 8 -8 13 0 9 -54 84 -71 99 -3 3 -12 15 -20 27 -41 60 -243 273 -335
353 -276 241 -594 427 -929 543 -91 31 -230 73 -273 82 -9 2 -62 12 -117 23
-55 11 -127 24 -160 27 -33 4 -73 9 -90 12 -36 6 -471 14 -476 8z"/>
</g>
</svg>
